# Blender 4.0.2
# www.blender.org
mtllib base.mtl
o Cube.004
v 64.546921 -6.687241 -37.567337
v 64.546921 11.743046 -37.567337
v 64.546921 -6.687241 24.608295
v 64.546921 -0.390885 24.608295
v -64.546921 -6.687241 -37.567337
v -64.546921 11.743046 -37.567337
v -64.546921 -6.687241 24.608295
v -64.546921 -0.390885 24.608295
vn -0.0000 -1.0000 -0.0000
vn -0.0000 -0.0000 1.0000
vn -1.0000 -0.0000 -0.0000
vn 1.0000 -0.0000 -0.0000
vn -0.0000 -0.0000 -1.0000
vt 0.625000 0.500000
vt 0.875000 0.500000
vt 0.875000 0.750000
vt 0.625000 0.750000
vt 0.375000 0.750000
vt 0.625000 1.000000
vt 0.375000 1.000000
vt 0.375000 0.000000
vt 0.625000 0.000000
vt 0.625000 0.250000
vt 0.375000 0.250000
vt 0.375000 0.500000
s 0
usemtl Material.001
f 1/1/1 3/4/1 7/3/1 5/2/1
f 4/5/2 8/7/2 7/6/2 3/4/2
f 8/8/3 6/11/3 5/10/3 7/9/3
f 2/12/4 4/5/4 3/4/4 1/1/4
f 6/11/5 2/12/5 1/1/5 5/10/5
