# Blender 4.0.2
# www.blender.org
mtllib bottom_green.mtl
o black_wall.013
v 20.789658 -15.616090 -17.724928
v 20.893614 -0.019360 -17.724928
v 20.789658 -15.616090 17.724928
v 20.893614 -0.018937 17.724928
v -18.824806 -15.616090 -17.724928
v -18.720848 -0.019360 -17.724928
v -18.824806 -15.616090 17.724928
v -18.720848 -0.018937 17.724928
v -18.720848 -0.018937 17.724928
v 20.789658 -15.616090 17.724928
v -18.824806 -15.616090 17.724928
v 20.893614 -0.018937 17.724928
v -18.824806 -15.616090 2.312940
v 20.893614 -0.019360 2.312940
v -18.720848 -0.019360 2.312940
v 20.789658 -15.616090 2.312940
v 20.789658 -0.835062 -17.724928
v -18.824806 -0.835062 17.724928
v 20.789658 -0.835062 17.724928
v -18.824806 -0.835062 -17.724928
v 20.789658 -0.835062 17.724928
v -18.824806 -0.835062 17.724928
v 20.789658 -0.835062 2.312940
v -18.824806 -0.835062 2.312940
v -18.824806 -7.791505 17.650080
v 20.789658 -6.226586 -17.724928
v 20.789658 -7.791505 17.650080
v -18.824806 -6.226586 -17.724928
v 20.789658 -7.791505 17.650080
v -18.824806 -7.791505 17.650080
v 20.789658 -7.786330 2.312940
v -18.824806 -7.786330 2.312940
v 20.789658 -15.616090 -17.724928
v 20.893614 -0.019360 -17.724928
v 20.789658 -15.616090 17.724928
v 20.893614 -0.018937 17.724928
v -18.824806 -15.616090 -17.724928
v -18.720848 -0.019360 -17.724928
v -18.824806 -15.616090 17.724928
v -18.720848 -0.018937 17.724928
v -18.720848 -0.018937 17.724928
v 20.789658 -15.616090 17.724928
v -18.824806 -15.616090 17.724928
v 20.893614 -0.018937 17.724928
v -18.824806 -15.616090 2.312940
v 20.893614 -0.019360 2.312940
v -18.720848 -0.019360 2.312940
v 20.789658 -15.616090 2.312940
v 20.789658 -0.835062 -17.724928
v -18.824806 -0.835062 17.724928
v 20.789658 -0.835062 17.724928
v -18.824806 -0.835062 -17.724928
v 20.789658 -0.835062 17.724928
v -18.824806 -0.835062 17.724928
v 20.789658 -0.835062 2.312940
v -18.824806 -0.835062 2.312940
v -18.824806 -7.791505 17.650080
v 20.789658 -6.226586 -17.724928
v 20.789658 -7.791505 17.650080
v -18.824806 -6.226586 -17.724928
v 20.789658 -7.791505 17.650080
v -18.824806 -7.791505 17.650080
v 20.789658 -7.786330 2.312940
v -18.824806 -7.786330 2.312940
v -10.131855 -7.786330 2.312940
v -10.131855 -0.835062 2.312940
v 2.026798 -7.717471 2.312940
v 2.026798 -0.766203 2.312940
v 14.453251 -7.786330 2.312940
v 14.453251 -0.835062 2.312940
v 2.866077 -7.717471 2.312940
v 2.866077 -0.766203 2.312940
v 2.026798 -7.717471 17.192524
v 2.026798 -0.766203 17.192524
v 2.866077 -7.717471 17.192524
v 2.866077 -0.766203 17.192524
v 2.026798 -7.717471 17.685171
v 2.026798 -0.766203 17.723785
v 2.866077 -7.717471 17.685171
v 2.866077 -0.766203 17.723785
v -10.131855 -7.786330 17.668186
v -10.131855 -0.835062 17.668186
v 14.453251 -7.786330 17.672329
v 14.453251 -0.835062 17.672329
v 20.765242 -7.786330 17.672329
v 20.765242 -0.835062 17.672329
vn -0.0000 -1.0000 -0.0000
vn -0.0000 0.0096 1.0000
vn -1.0000 -0.0000 -0.0000
vn -0.0000 -0.0000 -1.0000
vn 1.0000 -0.0000 -0.0000
vn -0.0000 1.0000 -0.0000
vn -0.9920 0.1264 -0.0000
vn 0.9920 -0.1264 -0.0000
vn -0.0000 -0.0000 1.0000
vn -0.0000 0.0410 -0.9992
vn 0.0022 -0.0054 1.0000
vt 0.194405 0.500000
vt 0.590452 0.716635
vt 0.687983 0.716636
vt 0.687983 0.855694
vt 0.590452 0.855693
vt 0.486398 0.282623
vt 0.388810 0.282623
vt 0.388810 -0.000000
vt 0.505839 -0.000000
vt 0.763732 0.617033
vt 0.763732 0.500000
vt 0.902790 0.500000
vt 0.902790 0.617033
vt 0.097590 0.217377
vt 0.000000 0.217377
vt 0.000000 -0.000000
vt 0.097525 0.001056
vt 0.916674 0.217377
vt 0.777616 0.217377
vt 0.777616 0.000000
vt 0.916674 0.000000
vt 0.139058 0.717377
vt 0.000000 0.717377
vt 0.000000 0.500000
vt 0.139058 0.500000
vt 0.139058 1.000000
vt 0.000000 1.000000
vt 0.916674 0.500000
vt 0.777616 0.500000
vt 0.117030 0.500000
vt 0.000000 0.500000
vt 0.486334 0.498944
vt 0.388810 0.500000
vt 0.583213 0.500000
vt 0.573037 0.500000
vt 0.573037 0.282623
vt 0.583208 0.282623
vt 0.194400 0.500000
vt 0.184230 0.500000
vt 0.184230 0.217377
vt 0.194400 0.217377
vt 0.184230 -0.000000
vt 0.194405 -0.000000
vt 0.764097 0.694402
vt 0.763732 0.684235
vt 0.902790 0.684235
vt 0.903154 0.694402
vt 0.573037 -0.000000
vt 0.583208 -0.000000
vt 0.753559 0.716577
vt 0.763732 0.716942
vt 0.763732 0.856000
vt 0.753559 0.855635
vt 0.903155 0.639058
vt 0.989799 0.639058
vt 0.989798 0.778115
vt 0.903154 0.778115
vt 0.417173 0.717361
vt 0.514704 0.717362
vt 0.514704 0.856420
vt 0.417173 0.856419
vt 0.680801 0.282623
vt 0.583213 0.282623
vt 0.583213 -0.000000
vt 0.700242 -0.000000
vt 0.763732 0.811436
vt 0.763732 0.694402
vt 0.902790 0.694402
vt 0.902790 0.811436
vt 0.291995 0.217377
vt 0.194405 0.217377
vt 0.194405 0.000000
vt 0.291930 0.001056
vt 0.278115 0.717377
vt 0.278115 0.500000
vt 0.417173 0.717377
vt 0.278115 0.717377
vt 0.278115 0.500000
vt 0.417173 0.500000
vt 0.417173 1.000000
vt 0.278115 1.000000
vt 0.278115 1.000000
vt 0.311435 0.500000
vt 0.194405 0.500000
vt 0.680737 0.498944
vt 0.777616 0.500000
vt 0.767440 0.500000
vt 0.767440 0.282623
vt 0.777611 0.282623
vt 0.388805 0.500000
vt 0.378635 0.500000
vt 0.378635 0.217377
vt 0.388805 0.217377
vt 0.378635 0.000000
vt 0.388810 0.000000
vt 0.764097 0.888804
vt 0.763732 0.878637
vt 0.902790 0.878637
vt 0.903154 0.888804
vt 0.767440 -0.000000
vt 0.777611 -0.000000
vt 0.743387 0.716577
vt 0.753559 0.716942
vt 0.753559 0.856000
vt 0.743386 0.855635
vt 0.904013 0.608543
vt 0.990657 0.608543
vt 0.990657 0.639058
vt 0.904013 0.639058
vt 0.903154 0.565863
vt 0.989798 0.565863
vt 0.904013 0.522242
vt 0.990657 0.522242
vt 0.904013 0.500000
vt 0.990657 0.500000
vt 0.503813 0.500000
vt 0.590452 0.500000
vt 0.590452 0.709868
vt 0.503813 0.709868
vt 0.503813 0.717361
vt 0.417173 0.717361
vt 0.417173 0.507493
vt 0.503813 0.507493
vt 0.590452 0.717361
vt 0.503813 0.716817
vt 0.417173 0.500545
vt 0.503813 0.500000
vt 0.763732 0.716577
vt 0.677092 0.716577
vt 0.677092 0.500000
vt 0.763732 0.500000
vt 0.677092 0.716635
vt 0.590452 0.716635
vt 0.590452 0.500000
vt 0.712871 0.716577
vt 0.712871 0.803220
vt 0.690714 0.803220
vt 0.690714 0.716577
vt 0.514704 0.804047
vt 0.514704 0.717402
vt 0.517650 0.717361
vt 0.517650 0.717402
vt 0.517650 0.804047
vt 0.743385 0.716577
vt 0.743386 0.803284
vt 0.712871 0.803285
vt 0.712871 0.716641
s 0
usemtl Material.008
f 10/1/1 3/1/1 7/1/1 11/1/1
f 27/2/2 25/5/2 7/4/2 3/3/2
f 32/6/3 28/9/3 5/8/3 13/7/3
f 9/1/1 8/1/1 4/1/1 12/1/1
f 29/1/1 27/1/1 3/1/1 10/1/1
f 28/10/4 26/13/4 1/12/4 5/11/4
f 31/14/5 29/17/5 10/16/5 16/15/5
f 15/18/6 9/21/6 12/20/6 14/19/6
f 25/1/1 30/1/1 11/1/1 7/1/1
f 16/22/1 10/25/1 11/24/1 13/23/1
f 1/26/1 16/22/1 13/23/1 5/27/1
f 6/28/6 15/18/6 14/19/6 2/29/6
f 26/30/5 31/14/5 16/15/5 1/31/5
f 30/32/3 32/6/3 13/7/3 11/33/3
f 9/34/7 15/37/7 24/36/7 22/35/7
f 2/38/8 14/41/8 23/40/8 17/39/8
f 8/1/1 9/1/1 22/1/1 18/1/1
f 14/41/8 12/43/8 21/42/8 23/40/8
f 6/44/4 2/47/4 17/46/4 20/45/4
f 12/1/1 4/1/1 19/1/1 21/1/1
f 15/37/7 6/49/7 20/48/7 24/36/7
f 4/50/9 8/53/9 18/52/9 19/51/9
f 17/39/5 23/40/5 31/14/5 26/30/5
f 20/45/4 17/46/4 26/13/4 28/10/4
f 24/36/3 20/48/3 28/9/3 32/6/3
f 23/54/9 24/57/9 32/56/9 31/55/9
f 42/1/1 35/1/1 39/1/1 43/1/1
f 59/58/2 57/61/2 39/60/2 35/59/2
f 64/62/3 60/65/3 37/64/3 45/63/3
f 41/1/1 40/1/1 36/1/1 44/1/1
f 61/1/1 59/1/1 35/1/1 42/1/1
f 60/66/4 58/69/4 33/68/4 37/67/4
f 63/70/5 61/73/5 42/72/5 48/71/5
f 47/74/6 41/75/6 44/25/6 46/22/6
f 57/1/1 62/1/1 43/1/1 39/1/1
f 48/76/1 42/79/1 43/78/1 45/77/1
f 33/80/1 48/76/1 45/77/1 37/81/1
f 38/82/6 47/74/6 46/22/6 34/26/6
f 58/83/5 63/70/5 48/71/5 33/84/5
f 62/85/3 64/62/3 45/63/3 43/34/3
f 41/86/7 47/89/7 56/88/7 54/87/7
f 34/90/8 46/93/8 55/92/8 49/91/8
f 40/1/1 41/1/1 54/1/1 50/1/1
f 46/93/8 44/95/8 53/94/8 55/92/8
f 38/96/4 34/99/4 49/98/4 52/97/4
f 44/1/1 36/1/1 51/1/1 53/1/1
f 47/89/7 38/101/7 52/100/7 56/88/7
f 36/102/9 40/105/9 50/104/9 51/103/9
f 49/91/5 55/92/5 63/70/5 58/83/5
f 52/97/4 49/98/4 58/69/4 60/66/4
f 56/88/3 52/100/3 60/65/3 64/62/3
f 66/106/9 56/109/9 64/108/9 65/107/9
f 68/110/9 66/106/9 65/107/9 67/111/9
f 70/112/9 68/110/9 67/111/9 69/113/9
f 55/114/9 70/112/9 69/113/9 63/115/9
f 71/116/3 75/119/3 76/118/3 72/117/3
f 68/120/5 74/123/5 73/122/5 67/121/5
f 75/119/3 79/125/3 80/124/3 76/118/3
f 74/123/5 78/127/5 77/126/5 73/122/5
f 66/128/5 82/131/5 81/130/5 65/129/5
f 70/132/5 84/130/5 83/134/5 69/133/5
f 85/135/4 83/138/4 84/137/4 86/136/4
f 63/70/5 55/92/5 53/94/5 61/73/5
f 78/139/10 80/143/10 79/142/10 75/141/10 77/140/10
f 62/144/11 81/147/11 82/146/11 54/145/11
f 62/85/3 54/87/3 56/88/3 64/62/3
