# Blender 4.0.2
# www.blender.org
mtllib floor.mtl
o black_wall.001
v 20.789658 -0.072596 17.724928
v -18.824806 -0.072596 17.724928
v 20.789658 -0.081333 17.650080
v -18.824806 -0.081333 17.650080
v 20.789658 1.926723 2.312940
v -18.824806 1.926723 2.312940
v 20.789658 9.677228 17.724928
v -18.824806 9.677228 17.724928
v 20.789658 9.668491 17.650080
v -18.824806 9.668491 17.650080
v 20.789658 11.676548 2.312940
v -18.824806 11.676548 2.312940
vn -0.0000 0.9917 0.1286
vt 0.000000 0.000000
s 0
usemtl Material.005
f 2/1/1 1/1/1 3/1/1 5/1/1 6/1/1 4/1/1
f 8/1/1 7/1/1 9/1/1 11/1/1 12/1/1 10/1/1
