# Blender 4.0.2
# www.blender.org
mtllib floor_bottom.mtl
o black_wall.003
v -10.131855 -7.786330 2.312940
v 2.026798 -7.717471 2.312940
v 14.453251 -7.786330 2.312940
v 2.866077 -7.717471 2.312940
v 2.026798 -7.717471 17.685171
v 2.866077 -7.717471 17.685171
v -10.131855 -7.786330 17.668186
v 14.453251 -7.786330 17.672329
vn -0.0057 1.0000 -0.0000
vn -0.0059 -1.0000 -0.0000
vt 0.521277 0.252388
vt 0.521277 0.385161
vt 0.000000 0.000000
vt 0.521277 0.549262
s 0
usemtl Material.009
f 1/1/1 7/1/1 5/3/1 2/2/1
f 4/3/2 3/4/2 8/4/2 6/3/2
