# Blender 4.0.2
# www.blender.org
mtllib stairs.mtl
o Cube.049
v -6.525637 -15.738908 23.572424
v -10.163910 -15.738908 23.572424
v -10.163910 -11.020758 23.572424
v -6.525637 -15.738908 23.572424
v -10.163910 -15.738908 23.572424
v -10.163910 -11.020758 23.572424
v -6.525637 -7.793419 17.622286
v -6.525637 -7.793419 23.572424
v -0.184847 -15.738908 17.622286
v -0.184847 -15.738908 23.572422
v -10.163910 -7.749952 17.622286
v -10.163910 -7.749952 23.572424
v -0.184847 -15.738908 23.572422
v -0.184847 -15.738908 17.622286
v -0.184847 -15.738908 23.572422
v 11.311403 -15.738908 17.666250
v 14.949677 -15.738908 17.666248
v 14.949677 -11.020758 17.666248
v 11.311403 -15.738908 17.666250
v 14.949677 -15.738908 17.666248
v 14.949677 -11.020758 17.666248
v 11.311403 -7.793419 23.616386
v 11.311403 -7.793419 17.666250
v 4.970613 -15.738908 23.616386
v 4.970613 -15.738908 17.666248
v 14.949677 -7.749952 23.616386
v 14.949677 -7.749952 17.666248
v 4.970613 -15.738908 17.666248
v 4.970613 -15.738908 23.616386
v 4.970613 -15.738908 17.666248
vn -0.0119 -0.9999 -0.0000
vn -0.0000 1.0000 -0.0000
vn -0.7816 -0.6238 -0.0000
vn 0.0119 -0.9999 -0.0000
vn 0.7816 -0.6238 -0.0000
vt 0.000000 0.000000
vt 0.625000 0.250000
vt 0.625000 0.500000
s 0
usemtl Material.009
f 7/1/1 8/1/1 12/2/1 11/3/1
f 9/1/2 14/1/2 15/1/2 13/1/2 10/1/2
f 8/1/3 7/1/3 9/1/3 14/1/3 10/1/3 13/1/3 15/1/3
f 22/1/4 23/1/4 27/2/4 26/3/4
f 24/1/2 29/1/2 30/1/2 28/1/2 25/1/2
f 23/1/5 22/1/5 24/1/5 29/1/5 25/1/5 28/1/5 30/1/5
l 6 3
l 1 4
l 2 5
l 21 18
l 16 19
l 17 20
