# Blender 4.0.2
# www.blender.org
mtllib color.mtl
o Cube
v 1.000000 1.000000 -1.000000
v 1.000000 -1.000000 -1.000000
v 1.000000 1.000000 1.000000
v 1.000000 -1.000000 1.000000
v -1.000000 1.000000 -1.000000
v -1.000000 -1.000000 -1.000000
v -1.000000 1.000000 1.000000
v -1.000000 -1.000000 1.000000
vn -0.0000 1.0000 -0.0000
vn -0.0000 -0.0000 1.0000
vn -1.0000 -0.0000 -0.0000
vn -0.0000 -1.0000 -0.0000
vn 1.0000 -0.0000 -0.0000
vn -0.0000 -0.0000 -1.0000
vt 0.333333 0.333333
vt 0.000000 0.333333
vt 0.000000 0.000000
vt 0.333333 0.000000
vt 0.000000 0.666667
vt 0.333333 0.666667
vt 0.666667 0.333333
vt 0.333333 0.000000
vt 0.666667 -0.000000
vt 0.666667 0.666667
vt 0.333333 0.333333
vt 0.000000 1.000000
vt 0.333333 1.000000
vt 0.666667 1.000000
s 0
usemtl Material
f 1/1/1 5/2/1 7/3/1 3/4/1
f 4/5/2 3/2/2 7/1/2 8/6/2
f 8/7/3 7/1/3 5/8/3 6/9/3
f 6/7/4 2/10/4 4/6/4 8/11/4
f 2/12/5 1/5/5 3/6/5 4/13/5
f 6/13/6 5/6/6 1/10/6 2/14/6
