# Blender 4.0.2
# www.blender.org
mtllib chair.mtl
o Cube.004
v 31.584526 10.191830 4.262098
v 31.598698 11.870650 4.714536
v 31.584526 10.191830 3.036302
v 31.584526 11.735264 3.036302
v 33.127960 10.191830 4.262098
v 33.142132 11.870650 4.714536
v 33.127960 10.191830 3.036302
v 33.127960 11.735264 3.036302
v 31.584526 10.191830 3.319844
v 31.584526 11.584020 3.319844
v 33.127960 10.191830 3.319844
v 33.127960 11.584020 3.319844
v 31.584526 13.411878 3.036302
v 33.127960 13.411878 3.036302
v 31.584526 13.411878 3.319844
v 33.127960 13.411878 3.319844
v 31.584526 10.191830 3.989380
v 33.127960 11.584020 3.955770
v 31.584526 11.584020 3.955770
v 33.127960 10.191830 3.989380
vn -1.0000 -0.0000 -0.0000
vn -0.0000 -0.0000 -1.0000
vn 0.9999 -0.0028 -0.0129
vn -0.0000 -0.2602 0.9656
vn -0.0000 -1.0000 -0.0000
vn -0.0000 0.9355 -0.3534
vn 1.0000 -0.0000 -0.0000
vn -0.0000 1.0000 -0.0000
vn -0.0000 -0.0000 1.0000
vn -0.9999 0.0028 0.0129
vt 0.375000 0.204073
vt 0.625000 0.204073
vt 0.625000 0.250000
vt 0.375000 0.250000
vt 0.625000 0.500000
vt 0.375000 0.500000
vt 0.375000 0.654376
vt 0.625000 0.654376
vt 0.625000 0.750000
vt 0.375000 0.750000
vt 0.625000 1.000000
vt 0.375000 1.000000
vt 0.125000 0.654376
vt 0.125000 0.750000
vt 0.875000 0.654376
vt 0.875000 0.750000
vt 0.625000 0.545927
vt 0.125000 0.500000
vt 0.375000 0.545927
vt 0.125000 0.545927
vt 0.375000 0.095624
vt 0.625000 0.095624
vt 0.875000 0.500000
vt 0.875000 0.545927
vt 0.375000 0.000000
vt 0.625000 0.000000
s 0
usemtl Material.018
f 9/1/1 10/2/1 4/3/1 3/4/1
f 3/4/2 4/3/2 8/5/2 7/6/2
f 20/7/3 18/8/3 6/9/3 5/10/3
f 5/10/4 6/9/4 2/11/4 1/12/4
f 17/13/5 20/7/5 5/10/5 1/14/5
f 18/8/6 19/15/6 2/16/6 6/9/6
f 12/17/7 8/5/7 14/5/7 16/17/7
f 3/18/5 7/6/5 11/19/5 9/20/5
f 7/6/7 8/5/7 12/17/7 11/19/7
f 17/21/1 19/22/1 10/2/1 9/1/1
f 14/5/8 13/23/8 15/24/8 16/17/8
f 4/3/1 10/2/1 15/2/1 13/3/1
f 8/5/2 4/3/2 13/3/2 14/5/2
f 10/24/9 12/17/9 16/17/9 15/24/9
f 1/25/10 2/26/10 19/22/10 17/21/10
f 12/17/8 10/24/8 19/15/8 18/8/8
f 9/20/5 11/19/5 20/7/5 17/13/5
f 11/19/7 12/17/7 18/8/7 20/7/7
