# Blender 4.0.2
# www.blender.org
mtllib double.mtl
o Cube.002
v -247.332870 -5.986752 -0.022251
v -247.332870 -3.320323 -0.022251
v -246.167419 -5.986752 -0.022251
v -246.167419 -3.320323 -0.022251
v -246.059418 -5.986752 -0.022251
v -246.059418 -3.320323 -0.022251
v -244.893967 -5.986752 -0.022251
v -244.893967 -3.320323 -0.022251
vn -0.0000 -0.0000 1.0000
vt 0.375000 0.750000
vt 0.625000 0.750000
vt 0.625000 1.000000
vt 0.375000 1.000000
s 0
usemtl Material.007
f 3/1/1 4/2/1 2/3/1 1/4/1
f 7/1/1 8/2/1 6/3/1 5/4/1
