# Blender 4.0.2
# www.blender.org
mtllib large_window.mtl
o Cube.001
v 35.449337 0.272373 17.125277
v 35.449337 2.272373 17.125277
v 35.449337 0.272373 15.125277
v 35.449337 2.272373 15.125277
v 37.552830 0.272373 17.125277
v 37.552830 2.272373 17.125277
v 37.552830 0.272373 15.125277
v 37.552830 2.272373 15.125277
v 35.449337 -1.837319 17.125277
v 35.449337 -1.837319 15.125277
v 37.552830 -1.837319 17.125277
v 37.552830 -1.837319 15.125277
vn -1.0000 -0.0000 -0.0000
vn -0.0000 -0.0000 -1.0000
vn 1.0000 -0.0000 -0.0000
vn -0.0000 -0.0000 1.0000
vn -0.0000 1.0000 -0.0000
vn -0.0000 -1.0000 -0.0000
vt 0.375000 0.000000
vt 0.625000 0.000000
vt 0.625000 0.250000
vt 0.375000 0.250000
vt 0.625000 0.500000
vt 0.375000 0.500000
vt 0.625000 0.750000
vt 0.375000 0.750000
vt 0.625000 1.000000
vt 0.375000 1.000000
vt 0.875000 0.500000
vt 0.875000 0.750000
vt 0.125000 0.500000
vt 0.125000 0.750000
s 0
usemtl Material.003
f 1/1/1 2/2/1 4/3/1 3/4/1
f 3/4/2 4/3/2 8/5/2 7/6/2
f 7/6/3 8/5/3 6/7/3 5/8/3
f 5/8/4 6/7/4 2/9/4 1/10/4
f 3/4/2 7/6/2 12/6/2 10/4/2
f 8/5/5 4/11/5 2/12/5 6/7/5
f 10/13/6 12/6/6 11/8/6 9/14/6
f 1/1/1 3/4/1 10/4/1 9/1/1
f 7/6/3 5/8/3 11/8/3 12/6/3
f 5/8/4 1/10/4 9/10/4 11/8/4
