# Blender 4.0.2
# www.blender.org
mtllib orange_large.mtl
o Cube.029
v -251.827423 -5.882610 2.453606
v -251.827423 -3.216181 2.453606
v -250.661972 -5.882610 2.453606
v -250.661972 -3.216181 2.453606
v -250.553970 -5.882610 2.453606
v -250.553970 -3.216181 2.453606
v -249.388519 -5.882610 2.453606
v -249.388519 -3.216181 2.453606
v -251.827423 -6.578314 2.453606
v -250.661972 -6.578314 2.453606
v -250.553970 -6.578314 2.453606
v -249.388519 -6.578314 2.453606
vn -0.0000 -0.0000 1.0000
vt 0.375000 0.750000
vt 0.625000 0.750000
vt 0.625000 1.000000
vt 0.375000 1.000000
s 0
usemtl Material.007
f 3/1/1 4/2/1 2/3/1 1/4/1
f 7/1/1 8/2/1 6/3/1 5/4/1
f 4/2/1 3/1/1 5/4/1 6/3/1
f 5/4/1 3/1/1 10/1/1 11/4/1
f 7/1/1 5/4/1 11/4/1 12/1/1
f 3/1/1 1/4/1 9/4/1 10/1/1
