# Blender 4.0.2
# www.blender.org
mtllib guy_object.mtl
o Cylinder
v 0.000330 2.288513 -0.999976
v -0.011341 7.276369 -1.000000
v 0.921154 3.525717 -0.500000
v 1.709812 7.857676 -0.537602
v 0.921154 3.525717 0.500000
v 1.709812 7.857676 0.462398
v -0.000000 2.298702 1.000000
v -0.011341 7.327792 1.000000
v 1.735128 -1.896251 4.638541
v 2.662094 -1.849771 4.240418
v 2.768116 -2.725577 3.769542
v 1.880786 -3.340780 3.627146
v -0.009061 6.275920 -1.000000
v 2.227834 6.966912 -0.766593
v 2.224724 6.985187 0.228905
v -0.009061 6.317008 1.000000
v 4.266366 3.259348 1.189706
v 4.190643 3.651910 2.097004
v 3.466550 2.995965 1.274093
v 3.429083 3.414509 2.155810
v -0.269394 9.619394 -0.204548
v -0.275098 9.099988 -0.766660
v -0.214673 8.337730 -0.799815
v 0.356984 9.512300 0.062424
v 0.619654 8.953096 -0.389330
v 0.411706 8.230637 -0.532842
v 0.436808 9.219154 0.700933
v 0.732541 8.538526 0.513658
v 0.491529 7.937490 0.105667
v -0.109748 9.033102 1.072469
v -0.049323 8.270845 1.039316
v -0.055027 7.751439 0.477203
v -0.200904 9.591690 0.557245
v 0.491529 7.937490 0.105667
v 0.011341 7.276371 -1.000000
v -0.921154 3.525717 -0.500000
v -1.709812 7.857678 -0.537601
v -0.921154 3.525717 0.500000
v -1.709812 7.857678 0.462399
v 0.011341 7.327792 1.000000
v -1.356239 -4.082979 -0.971140
v -2.278643 -3.703467 -1.129482
v -2.230003 -3.325286 -2.053935
v -1.251461 -3.247695 -2.503793
v 0.009062 6.275923 -1.000000
v -2.231075 6.997563 -0.783521
v -2.225933 6.993187 0.215903
v 0.009061 6.317008 1.000000
v -4.444987 3.577270 -1.025651
v -4.324921 3.469363 -0.038671
v -3.651313 3.263969 -1.076463
v -3.568161 3.191206 -0.085625
v -0.265308 9.619734 -0.204904
v -0.271011 9.100327 -0.767015
v -0.210586 8.338070 -0.800169
v -0.810580 9.415335 0.163869
v -1.051591 8.814301 -0.244122
v -0.755858 8.133671 -0.431397
v -0.730756 9.122189 0.802378
v -0.938704 8.399729 0.658866
v -0.676035 7.840525 0.207112
v -0.105661 9.033442 1.072114
v -0.045236 8.271185 1.038960
v -0.050939 7.751778 0.476848
v -0.196817 9.592030 0.556890
v -0.676035 7.840525 0.207112
vn 0.1233 0.1527 -0.9806
vn 0.6341 -0.0582 -0.7711
vn 0.3219 -0.0289 0.9463
vn -1.0000 -0.0023 -0.0001
vn 0.9664 0.2455 -0.0765
vn 0.6076 -0.3450 -0.7154
vn -0.0289 0.6037 0.7967
vn -0.9565 -0.2780 0.0879
vn 0.2948 -0.4915 0.8195
vn -0.3075 0.9514 -0.0163
vn 0.3912 -0.0344 0.9197
vn 0.9354 -0.3535 0.0047
vn 0.2727 -0.0820 -0.9586
vn 0.3125 -0.8576 0.4086
vn 0.8765 0.4773 -0.0634
vn -0.6620 0.0293 0.7489
vn -0.9571 -0.2859 0.0458
vn 0.3793 0.6801 -0.6274
vn 0.3989 0.0692 -0.9144
vn 0.1596 0.9870 0.0215
vn 0.9215 0.3836 0.0609
vn 0.9476 -0.2284 -0.2233
vn 0.4177 0.8444 0.3355
vn 0.5572 0.0107 0.8303
vn 0.5775 -0.6033 0.5500
vn 0.2404 0.6790 0.6936
vn 0.0237 -0.9074 -0.4196
vn -0.1147 0.1618 -0.9801
vn -0.1988 0.1966 -0.9601
vn -0.3260 -0.0341 0.9448
vn 1.0000 -0.0022 0.0001
vn -0.9829 0.1836 0.0112
vn -0.2839 0.2847 -0.9156
vn -0.4429 -0.1457 0.8847
vn 0.9779 -0.2083 -0.0196
vn -0.2065 -0.8721 -0.4436
vn 0.3075 0.9514 -0.0163
vn -0.3938 -0.0333 0.9186
vn -0.9358 -0.3525 0.0016
vn -0.2691 -0.0834 -0.9595
vn -0.3587 -0.9322 -0.0483
vn -0.8523 0.5170 0.0796
vn 0.2187 -0.1993 0.9552
vn 0.9389 -0.3399 -0.0548
vn -0.5873 0.5998 -0.5434
vn -0.5555 -0.0101 -0.8315
vn -0.3129 0.9477 0.0626
vn -0.9476 0.2284 0.2233
vn -0.9215 -0.3836 -0.0609
vn -0.4866 0.7693 0.4140
vn -0.4008 -0.0689 0.9136
vn -0.3681 -0.6819 0.6321
vn -0.2259 0.6403 0.7342
vn 0.0537 -0.9049 -0.4222
vt 1.000000 0.899506
vt 1.000000 1.000000
vt 0.833333 1.000000
vt 0.833333 0.899506
vt 0.666667 0.899506
vt 0.666667 1.000000
vt 0.500000 1.000000
vt 0.500000 0.899506
vt 1.000000 0.500000
vt 0.000000 0.000000
vt 0.833333 0.500000
vt 0.666667 0.500000
vt 0.500000 0.500000
vt 0.666667 0.500000
vt 0.666667 0.750000
vt 0.500000 0.750000
vt 0.500000 0.500000
vt 0.666667 0.250000
vt 0.500000 0.250000
vt 0.583333 1.000000
vt 0.333333 0.750000
vt 0.333333 0.500000
vt 0.333333 0.250000
vt 0.416667 1.000000
vt 0.166667 0.750000
vt 0.166667 0.500000
vt 0.166667 0.250000
vt 0.250000 1.000000
s 0
usemtl Material.001
f 13/1/1 2/2/1 4/3/1 14/4/1
f 14/4/2 4/3/2 17/3/2 19/4/2
f 15/5/3 6/6/3 8/7/3 16/8/3
f 2/2/4 13/1/4 1/9/4 7/10/4
f 3/11/5 5/12/5 10/12/5 11/11/5
f 1/9/6 3/11/6 11/11/6 12/9/6
f 5/12/7 7/13/7 9/13/7 10/12/7
f 12/9/8 9/13/8 7/13/8 1/9/8
f 10/12/9 9/13/9 12/9/9 11/11/9
f 4/3/10 2/2/10 8/7/10 6/6/10
f 5/12/11 15/5/11 16/8/11 7/13/11
f 3/11/12 14/4/12 15/5/12 5/12/12
f 1/9/13 13/1/13 14/4/13 3/11/13
f 19/4/14 17/3/14 18/6/14 20/5/14
f 4/3/15 6/6/15 18/6/15 17/3/15
f 6/6/16 15/5/16 20/5/16 18/6/16
f 15/5/17 14/4/17 19/4/17 20/5/17
f 22/14/18 21/15/18 24/16/18 25/17/18
f 23/18/19 22/14/19 25/17/19 26/19/19
f 21/15/20 33/20/20 24/16/20
f 25/17/21 24/16/21 27/21/21 28/22/21
f 26/19/22 25/17/22 28/22/22 29/23/22
f 24/16/23 33/24/23 27/21/23
f 28/22/24 27/21/24 30/25/24 31/26/24
f 29/23/25 28/22/25 31/26/25 32/27/25
f 27/21/26 33/28/26 30/25/26
f 32/10/27 23/18/27 26/19/27 29/23/27 34/10/27
f 45/1/28 46/4/28 37/3/28 35/2/28
f 46/4/29 51/4/29 49/3/29 37/3/29
f 47/5/30 48/8/30 40/7/30 39/6/30
f 35/2/31 7/10/31 1/9/31 45/1/31
f 36/11/32 43/11/32 42/12/32 38/12/32
f 1/9/33 44/9/33 43/11/33 36/11/33
f 38/12/34 42/12/34 41/13/34 7/13/34
f 44/9/35 1/9/35 7/13/35 41/13/35
f 42/12/36 43/11/36 44/9/36 41/13/36
f 37/3/37 39/6/37 40/7/37 35/2/37
f 38/12/38 7/13/38 48/8/38 47/5/38
f 36/11/39 38/12/39 47/5/39 46/4/39
f 1/9/40 36/11/40 46/4/40 45/1/40
f 51/4/41 52/5/41 50/6/41 49/3/41
f 37/3/42 49/3/42 50/6/42 39/6/42
f 39/6/43 50/6/43 52/5/43 47/5/43
f 47/5/44 52/5/44 51/4/44 46/4/44
f 54/14/45 57/17/45 56/16/45 53/15/45
f 55/18/46 58/19/46 57/17/46 54/14/46
f 53/15/47 56/16/47 65/20/47
f 57/17/48 60/22/48 59/21/48 56/16/48
f 58/19/49 61/23/49 60/22/49 57/17/49
f 56/16/50 59/21/50 65/24/50
f 60/22/51 63/26/51 62/25/51 59/21/51
f 61/23/52 64/27/52 63/26/52 60/22/52
f 59/21/53 62/25/53 65/28/53
f 64/10/54 66/10/54 61/23/54 58/19/54 55/18/54
