# Blender 4.0.2
# www.blender.org
mtllib bottom_section.mtl
o black_wall.011
v 15.553539 -15.770444 -17.724928
v 15.657495 0.872906 -17.724928
v 15.553539 -15.770444 17.724928
v 15.657495 0.873328 17.724928
v -24.060925 -15.770444 -17.724928
v -23.956966 0.872906 -17.724928
v -24.060925 -15.770444 17.724928
v -23.956966 0.873328 17.724928
v -23.956966 0.873328 17.724928
v 15.553539 -15.770444 17.724928
v -24.060925 -15.770444 17.724928
v 15.657495 0.873328 17.724928
v -24.060925 -15.770444 2.312940
v 15.657495 0.872906 2.312940
v -23.956966 0.872906 2.312940
v 15.553539 -15.770444 2.312940
v 15.553539 0.057203 -17.724928
v -24.060925 0.057203 17.724928
v 15.553539 0.057203 17.724928
v -24.060925 0.057203 -17.724928
v 15.553539 0.057203 17.724928
v -24.060925 0.057203 17.724928
v 15.553539 0.057203 2.312940
v -24.060925 0.057203 2.312940
v -24.060925 -10.985246 17.650080
v 15.553539 -5.334321 -17.724928
v 15.553539 -10.985246 17.650080
v -24.060925 -5.334321 -17.724928
v 15.553539 -10.985246 17.650080
v -24.060925 -10.985246 17.650080
v 15.553539 -7.106757 2.312940
v -24.060925 -7.106757 2.312940
v 15.553539 -15.770444 -17.724928
v 15.657495 0.872906 -17.724928
v 15.553539 -15.770444 17.724928
v 15.657495 0.873328 17.724928
v -24.060925 -15.770444 -17.724928
v -23.956966 0.872906 -17.724928
v -24.060925 -15.770444 17.724928
v -23.956966 0.873328 17.724928
v -23.956966 0.873328 17.724928
v 15.553539 -15.770444 17.724928
v -24.060925 -15.770444 17.724928
v 15.657495 0.873328 17.724928
v -24.060925 -15.770444 2.312940
v 15.657495 0.872906 2.312940
v -23.956966 0.872906 2.312940
v 15.553539 -15.770444 2.312940
v 15.553539 0.057203 -17.724928
v -24.060925 0.057203 17.724928
v 15.553539 0.057203 17.724928
v -24.060925 0.057203 -17.724928
v 15.553539 0.057203 17.724928
v -24.060925 0.057203 17.724928
v 15.553539 0.057203 2.312940
v -24.060925 0.057203 2.312940
v -24.060925 -10.985246 17.650080
v 15.553539 -5.334321 -17.724928
v 15.553539 -10.985246 17.650080
v -24.060925 -5.334321 -17.724928
v 15.553539 -10.985246 17.650080
v -24.060925 -10.985246 17.650080
v 15.553539 -7.106757 2.312940
v -24.060925 -7.106757 2.312940
vn -0.0000 -1.0000 -0.0000
vn -0.0000 0.0156 0.9999
vn -1.0000 -0.0000 -0.0000
vn -0.0000 -0.0000 -1.0000
vn 1.0000 -0.0000 -0.0000
vn -0.0000 1.0000 -0.0000
vn -0.9920 0.1264 -0.0000
vn 0.9920 -0.1264 -0.0000
vn -0.0000 -0.0000 1.0000
vt 0.625000 0.750000
vt 0.875000 0.750000
vt 0.521277 0.750000
vt 0.625000 1.000000
vt 0.521277 1.000000
vt 0.521277 0.118768
vt 0.625000 0.118768
vt 0.625000 0.250000
vt 0.521277 0.250000
vt 0.125000 0.750000
vt 0.375000 0.750000
vt 0.625000 0.500000
vt 0.521277 0.500000
vt 0.521277 0.631232
vt 0.625000 0.631232
vt 0.125000 0.631232
vt 0.375000 0.631232
vt 0.521277 1.000000
vt 0.875000 0.631232
vt 0.875000 0.500000
vt 0.125000 0.500000
vt 0.375000 0.500000
vt 0.521277 0.000000
vt 0.625000 0.000000
vt 0.375000 0.000000
vt 0.435284 0.000000
vt 0.435284 0.118768
vt 0.375000 0.118768
vt 0.435284 0.500000
vt 0.435284 0.631232
vt 0.375000 1.000000
vt 0.435284 1.000000
vt 0.435284 1.000000
vt 0.435284 0.750000
vt 0.375000 0.250000
vt 0.435284 0.250000
vt 0.000000 0.000000
s 0
usemtl Material.006
f 10/1/1 3/1/1 7/2/1 11/2/1
f 27/3/2 25/5/2 7/4/2 3/1/2
f 32/6/3 28/9/3 5/8/3 13/7/3
f 9/10/1 8/10/1 4/11/1 12/11/1
f 29/3/1 27/3/1 3/1/1 10/1/1
f 28/9/4 26/13/4 1/12/4 5/8/4
f 31/14/5 29/3/5 10/1/5 16/15/5
f 15/16/6 9/10/6 12/11/6 14/17/6
f 25/5/1 30/18/1 11/4/1 7/4/1
f 16/15/1 10/1/1 11/2/1 13/19/1
f 1/12/1 16/15/1 13/19/1 5/20/1
f 6/21/6 15/16/6 14/17/6 2/22/6
f 26/13/5 31/14/5 16/15/5 1/12/5
f 30/23/3 32/6/3 13/7/3 11/24/3
f 9/25/7 15/28/7 24/27/7 22/26/7
f 2/22/8 14/17/8 23/30/8 17/29/8
f 8/31/1 9/31/1 22/33/1 18/32/1
f 14/17/8 12/11/8 21/34/8 23/30/8
f 6/35/4 2/22/4 17/29/4 20/36/4
f 12/11/1 4/11/1 19/34/1 21/34/1
f 15/28/7 6/35/7 20/36/7 24/27/7
f 4/11/9 8/31/9 18/32/9 19/34/9
f 17/29/5 23/30/5 31/14/5 26/13/5
f 20/36/4 17/29/4 26/13/4 28/9/4
f 24/27/3 20/36/3 28/9/3 32/6/3
f 23/30/9 24/27/9 32/6/9 31/14/9
f 42/1/1 35/1/1 39/2/1 43/2/1
f 59/3/2 57/5/2 39/4/2 35/1/2
f 64/6/3 60/9/3 37/8/3 45/7/3
f 41/10/1 40/10/1 36/11/1 44/11/1
f 61/3/1 59/3/1 35/1/1 42/1/1
f 60/9/4 58/13/4 33/12/4 37/8/4
f 63/14/5 61/3/5 42/1/5 48/15/5
f 47/16/6 41/10/6 44/11/6 46/17/6
f 57/5/1 62/5/1 43/4/1 39/4/1
f 48/15/1 42/1/1 43/2/1 45/19/1
f 33/12/1 48/15/1 45/19/1 37/20/1
f 38/21/6 47/16/6 46/17/6 34/22/6
f 58/13/5 63/14/5 48/15/5 33/12/5
f 62/23/3 64/6/3 45/7/3 43/24/3
f 41/25/7 47/28/7 56/27/7 54/26/7
f 34/22/8 46/17/8 55/30/8 49/29/8
f 40/31/1 41/31/1 54/32/1 50/32/1
f 46/17/8 44/11/8 53/34/8 55/30/8
f 38/35/4 34/22/4 49/29/4 52/36/4
f 44/11/1 36/11/1 51/34/1 53/34/1
f 47/28/7 38/35/7 52/36/7 56/27/7
f 36/11/9 40/31/9 50/32/9 51/34/9
f 49/29/5 55/30/5 63/14/5 58/13/5
f 52/36/4 49/29/4 58/13/4 60/9/4
f 56/27/3 52/36/3 60/9/3 64/6/3
f 55/30/9 56/27/9 64/6/9 63/14/9
f 54/37/4 41/37/4 44/37/4 53/37/4
