# Blender 4.0.2
# www.blender.org
mtllib windows.mtl
o door.067
v -18.705814 -3.377310 2.496589
v -18.705814 -1.699235 2.496589
v -18.705814 -3.377310 2.007842
v -18.705814 -1.699235 2.007842
v -16.713976 -3.377310 2.496589
v -16.713976 -1.699235 2.496589
v -16.713976 -3.377310 2.007842
v -16.713976 -1.699235 2.007842
v 9.314146 -3.377310 2.496589
v 9.314146 -1.699235 2.496589
v 9.314146 -3.377310 2.007843
v 9.314146 -1.699235 2.007843
v 11.305984 -3.377310 2.496589
v 11.305984 -1.699235 2.496589
v 11.305984 -3.377310 2.007843
v 11.305984 -1.699235 2.007843
v 7.010403 -3.377310 2.496589
v 7.010403 -1.699235 2.496589
v 7.010403 -3.377310 2.007843
v 7.010403 -1.699235 2.007843
v 9.002239 -3.377310 2.496589
v 9.002239 -1.699235 2.496589
v 9.002239 -3.377310 2.007843
v 9.002239 -1.699235 2.007843
v 4.706654 -3.377310 2.496589
v 4.706654 -1.699235 2.496589
v 4.706654 -3.377310 2.007843
v 4.706654 -1.699235 2.007843
v 6.698490 -3.377310 2.496589
v 6.698490 -1.699235 2.496589
v 6.698490 -3.377310 2.007843
v 6.698490 -1.699235 2.007843
v 2.402914 -3.377310 2.496589
v 2.402914 -1.699235 2.496589
v 2.402914 -3.377310 2.007843
v 2.402914 -1.699235 2.007843
v 4.394751 -3.377310 2.496589
v 4.394751 -1.699235 2.496589
v 4.394751 -3.377310 2.007843
v 4.394751 -1.699235 2.007843
v -3.383234 -3.377310 2.496589
v -3.383234 -1.699235 2.496589
v -3.383234 -3.377310 2.007843
v -3.383234 -1.699235 2.007843
v -1.391397 -3.377310 2.496589
v -1.391397 -1.699235 2.496589
v -1.391397 -3.377310 2.007843
v -1.391397 -1.699235 2.007843
v -5.686975 -3.377310 2.496589
v -5.686975 -1.699235 2.496589
v -5.686975 -3.377310 2.007843
v -5.686975 -1.699235 2.007843
v -3.695139 -3.377310 2.496589
v -3.695139 -1.699235 2.496589
v -3.695139 -3.377310 2.007843
v -3.695139 -1.699235 2.007843
v -7.990725 -3.377310 2.496589
v -7.990725 -1.699235 2.496589
v -7.990725 -3.377310 2.007843
v -7.990725 -1.699235 2.007843
v -5.998888 -3.377310 2.496589
v -5.998888 -1.699235 2.496589
v -5.998888 -3.377310 2.007843
v -5.998888 -1.699235 2.007843
v -16.402073 -3.377310 2.496589
v -16.402073 -1.699235 2.496589
v -16.402073 -3.377310 2.007843
v -16.402073 -1.699235 2.007843
v -14.410234 -3.377310 2.496589
v -14.410234 -1.699235 2.496589
v -14.410234 -3.377310 2.007843
v -14.410234 -1.699235 2.007843
v -10.294467 -3.377310 2.496589
v -10.294467 -1.699235 2.496589
v -10.294467 -3.377310 2.007843
v -10.294467 -1.699235 2.007843
v -8.302629 -3.377310 2.496589
v -8.302629 -1.699235 2.496589
v -8.302629 -3.377310 2.007843
v -8.302629 -1.699235 2.007843
v -9.347963 4.260404 2.496589
v -9.347963 5.938479 2.496589
v -9.347963 4.260404 2.007843
v -9.347963 5.938479 2.007843
v -7.356126 4.260404 2.496589
v -7.356126 5.938479 2.496589
v -7.356126 4.260404 2.007843
v -7.356126 5.938479 2.007843
v -12.383914 4.260404 2.496589
v -12.383914 5.938479 2.496589
v -12.383914 4.260404 2.007843
v -12.383914 5.938479 2.007843
v -10.392076 4.260404 2.496589
v -10.392076 5.938479 2.496589
v -10.392076 4.260404 2.007843
v -10.392076 5.938479 2.007843
v 0.155744 4.421130 2.496589
v 0.155744 6.099204 2.496589
v 0.155744 4.421130 2.007843
v 0.155744 6.099204 2.007843
v 2.147581 4.421130 2.496589
v 2.147581 6.099204 2.496589
v 2.147581 4.421130 2.007843
v 2.147581 6.099204 2.007843
v 3.691723 4.421130 2.496589
v 3.691723 6.099204 2.496589
v 3.691723 4.421130 2.007843
v 3.691723 6.099204 2.007843
v 5.683559 4.421130 2.496589
v 5.683559 6.099204 2.496589
v 5.683559 4.421130 2.007843
v 5.683559 6.099204 2.007843
v 12.156643 4.421130 2.496589
v 12.156643 6.099204 2.496589
v 12.156643 4.421130 2.007843
v 12.156643 6.099204 2.007843
v 14.148479 4.421130 2.496589
v 14.148479 6.099204 2.496589
v 14.148479 4.421130 2.007843
v 14.148479 6.099204 2.007843
v -22.340015 4.483636 2.496589
v -22.340015 6.161711 2.496589
v -22.340015 4.483636 2.007843
v -22.340015 6.161711 2.007843
v -20.348177 4.483636 2.496589
v -20.348177 6.161711 2.496589
v -20.348177 4.483636 2.007843
v -20.348177 6.161711 2.007843
v 10.880123 14.171861 2.496589
v 10.880123 15.849935 2.496589
v 10.880123 14.171861 2.007843
v 10.880123 15.849935 2.007843
v 12.871962 14.171861 2.496589
v 12.871962 15.849935 2.496589
v 12.871962 14.171861 2.007843
v 12.871962 15.849935 2.007843
v 0.272184 14.171861 2.496589
v 0.272184 15.849935 2.496589
v 0.272184 14.171861 2.007843
v 0.272184 15.849935 2.007843
v 2.264022 14.171861 2.496589
v 2.264022 15.849935 2.496589
v 2.264022 14.171861 2.007843
v 2.264022 15.849935 2.007843
v -2.460161 14.171861 2.496589
v -2.460161 15.849935 2.496589
v -2.460161 14.171861 2.007843
v -2.460161 15.849935 2.007843
v -0.468324 14.171861 2.496589
v -0.468324 15.849935 2.496589
v -0.468324 14.171861 2.007843
v -0.468324 15.849935 2.007843
v -12.425197 14.171861 2.496589
v -12.425197 15.849935 2.496589
v -12.425197 14.171861 2.007843
v -12.425197 15.849935 2.007843
v -10.433359 14.171861 2.496589
v -10.433359 15.849935 2.496589
v -10.433359 14.171861 2.007843
v -10.433359 15.849935 2.007843
v -15.157542 14.171861 2.496589
v -15.157542 15.849935 2.496589
v -15.157542 14.171861 2.007843
v -15.157542 15.849935 2.007843
v -13.165706 14.171861 2.496589
v -13.165706 15.849935 2.496589
v -13.165706 14.171861 2.007843
v -13.165706 15.849935 2.007843
v -17.293131 14.171861 2.496589
v -17.293131 15.849935 2.496589
v -17.293131 14.171861 2.007843
v -17.293131 15.849935 2.007843
v -15.301294 14.171861 2.496589
v -15.301294 15.849935 2.496589
v -15.301294 14.171861 2.007843
v -15.301294 15.849935 2.007843
v -19.473362 14.171861 2.496589
v -19.473362 15.849935 2.496589
v -19.473362 14.171861 2.007843
v -19.473362 15.849935 2.007843
v -17.481524 14.171861 2.496589
v -17.481524 15.849935 2.496589
v -17.481524 14.171861 2.007843
v -17.481524 15.849935 2.007843
vn -1.0000 -0.0000 -0.0000
vn -0.0000 -0.0000 -1.0000
vn 1.0000 -0.0000 -0.0000
vn -0.0000 -0.0000 1.0000
vn -0.0000 -1.0000 -0.0000
vn -0.0000 1.0000 -0.0000
vt 0.375000 0.000000
vt 0.625000 0.000000
vt 0.625000 0.250000
vt 0.375000 0.250000
vt 0.625000 0.500000
vt 0.375000 0.500000
vt 0.625000 0.750000
vt 0.375000 0.750000
vt 0.625000 1.000000
vt 0.375000 1.000000
vt 0.125000 0.500000
vt 0.125000 0.750000
vt 0.875000 0.500000
vt 0.875000 0.750000
s 0
usemtl Material.001
f 1/1/1 2/2/1 4/3/1 3/4/1
f 3/4/2 4/3/2 8/5/2 7/6/2
f 7/6/3 8/5/3 6/7/3 5/8/3
f 5/8/4 6/7/4 2/9/4 1/10/4
f 3/11/5 7/6/5 5/8/5 1/12/5
f 8/5/6 4/13/6 2/14/6 6/7/6
f 9/1/1 10/2/1 12/3/1 11/4/1
f 11/4/2 12/3/2 16/5/2 15/6/2
f 15/6/3 16/5/3 14/7/3 13/8/3
f 13/8/4 14/7/4 10/9/4 9/10/4
f 11/11/5 15/6/5 13/8/5 9/12/5
f 16/5/6 12/13/6 10/14/6 14/7/6
f 17/1/1 18/2/1 20/3/1 19/4/1
f 19/4/2 20/3/2 24/5/2 23/6/2
f 23/6/3 24/5/3 22/7/3 21/8/3
f 21/8/4 22/7/4 18/9/4 17/10/4
f 19/11/5 23/6/5 21/8/5 17/12/5
f 24/5/6 20/13/6 18/14/6 22/7/6
f 25/1/1 26/2/1 28/3/1 27/4/1
f 27/4/2 28/3/2 32/5/2 31/6/2
f 31/6/3 32/5/3 30/7/3 29/8/3
f 29/8/4 30/7/4 26/9/4 25/10/4
f 27/11/5 31/6/5 29/8/5 25/12/5
f 32/5/6 28/13/6 26/14/6 30/7/6
f 33/1/1 34/2/1 36/3/1 35/4/1
f 35/4/2 36/3/2 40/5/2 39/6/2
f 39/6/3 40/5/3 38/7/3 37/8/3
f 37/8/4 38/7/4 34/9/4 33/10/4
f 35/11/5 39/6/5 37/8/5 33/12/5
f 40/5/6 36/13/6 34/14/6 38/7/6
f 41/1/1 42/2/1 44/3/1 43/4/1
f 43/4/2 44/3/2 48/5/2 47/6/2
f 47/6/3 48/5/3 46/7/3 45/8/3
f 45/8/4 46/7/4 42/9/4 41/10/4
f 43/11/5 47/6/5 45/8/5 41/12/5
f 48/5/6 44/13/6 42/14/6 46/7/6
f 49/1/1 50/2/1 52/3/1 51/4/1
f 51/4/2 52/3/2 56/5/2 55/6/2
f 55/6/3 56/5/3 54/7/3 53/8/3
f 53/8/4 54/7/4 50/9/4 49/10/4
f 51/11/5 55/6/5 53/8/5 49/12/5
f 56/5/6 52/13/6 50/14/6 54/7/6
f 57/1/1 58/2/1 60/3/1 59/4/1
f 59/4/2 60/3/2 64/5/2 63/6/2
f 63/6/3 64/5/3 62/7/3 61/8/3
f 61/8/4 62/7/4 58/9/4 57/10/4
f 59/11/5 63/6/5 61/8/5 57/12/5
f 64/5/6 60/13/6 58/14/6 62/7/6
f 65/1/1 66/2/1 68/3/1 67/4/1
f 67/4/2 68/3/2 72/5/2 71/6/2
f 71/6/3 72/5/3 70/7/3 69/8/3
f 69/8/4 70/7/4 66/9/4 65/10/4
f 67/11/5 71/6/5 69/8/5 65/12/5
f 72/5/6 68/13/6 66/14/6 70/7/6
f 73/1/1 74/2/1 76/3/1 75/4/1
f 75/4/2 76/3/2 80/5/2 79/6/2
f 79/6/3 80/5/3 78/7/3 77/8/3
f 77/8/4 78/7/4 74/9/4 73/10/4
f 75/11/5 79/6/5 77/8/5 73/12/5
f 80/5/6 76/13/6 74/14/6 78/7/6
f 81/1/1 82/2/1 84/3/1 83/4/1
f 83/4/2 84/3/2 88/5/2 87/6/2
f 87/6/3 88/5/3 86/7/3 85/8/3
f 85/8/4 86/7/4 82/9/4 81/10/4
f 83/11/5 87/6/5 85/8/5 81/12/5
f 88/5/6 84/13/6 82/14/6 86/7/6
f 89/1/1 90/2/1 92/3/1 91/4/1
f 91/4/2 92/3/2 96/5/2 95/6/2
f 95/6/3 96/5/3 94/7/3 93/8/3
f 93/8/4 94/7/4 90/9/4 89/10/4
f 91/11/5 95/6/5 93/8/5 89/12/5
f 96/5/6 92/13/6 90/14/6 94/7/6
f 97/1/1 98/2/1 100/3/1 99/4/1
f 99/4/2 100/3/2 104/5/2 103/6/2
f 103/6/3 104/5/3 102/7/3 101/8/3
f 101/8/4 102/7/4 98/9/4 97/10/4
f 99/11/5 103/6/5 101/8/5 97/12/5
f 104/5/6 100/13/6 98/14/6 102/7/6
f 105/1/1 106/2/1 108/3/1 107/4/1
f 107/4/2 108/3/2 112/5/2 111/6/2
f 111/6/3 112/5/3 110/7/3 109/8/3
f 109/8/4 110/7/4 106/9/4 105/10/4
f 107/11/5 111/6/5 109/8/5 105/12/5
f 112/5/6 108/13/6 106/14/6 110/7/6
f 113/1/1 114/2/1 116/3/1 115/4/1
f 115/4/2 116/3/2 120/5/2 119/6/2
f 119/6/3 120/5/3 118/7/3 117/8/3
f 117/8/4 118/7/4 114/9/4 113/10/4
f 115/11/5 119/6/5 117/8/5 113/12/5
f 120/5/6 116/13/6 114/14/6 118/7/6
f 121/1/1 122/2/1 124/3/1 123/4/1
f 123/4/2 124/3/2 128/5/2 127/6/2
f 127/6/3 128/5/3 126/7/3 125/8/3
f 125/8/4 126/7/4 122/9/4 121/10/4
f 123/11/5 127/6/5 125/8/5 121/12/5
f 128/5/6 124/13/6 122/14/6 126/7/6
f 129/1/1 130/2/1 132/3/1 131/4/1
f 131/4/2 132/3/2 136/5/2 135/6/2
f 135/6/3 136/5/3 134/7/3 133/8/3
f 133/8/4 134/7/4 130/9/4 129/10/4
f 131/11/5 135/6/5 133/8/5 129/12/5
f 136/5/6 132/13/6 130/14/6 134/7/6
f 137/1/1 138/2/1 140/3/1 139/4/1
f 139/4/2 140/3/2 144/5/2 143/6/2
f 143/6/3 144/5/3 142/7/3 141/8/3
f 141/8/4 142/7/4 138/9/4 137/10/4
f 139/11/5 143/6/5 141/8/5 137/12/5
f 144/5/6 140/13/6 138/14/6 142/7/6
f 145/1/1 146/2/1 148/3/1 147/4/1
f 147/4/2 148/3/2 152/5/2 151/6/2
f 151/6/3 152/5/3 150/7/3 149/8/3
f 149/8/4 150/7/4 146/9/4 145/10/4
f 147/11/5 151/6/5 149/8/5 145/12/5
f 152/5/6 148/13/6 146/14/6 150/7/6
f 153/1/1 154/2/1 156/3/1 155/4/1
f 155/4/2 156/3/2 160/5/2 159/6/2
f 159/6/3 160/5/3 158/7/3 157/8/3
f 157/8/4 158/7/4 154/9/4 153/10/4
f 155/11/5 159/6/5 157/8/5 153/12/5
f 160/5/6 156/13/6 154/14/6 158/7/6
f 161/1/1 162/2/1 164/3/1 163/4/1
f 163/4/2 164/3/2 168/5/2 167/6/2
f 167/6/3 168/5/3 166/7/3 165/8/3
f 165/8/4 166/7/4 162/9/4 161/10/4
f 163/11/5 167/6/5 165/8/5 161/12/5
f 168/5/6 164/13/6 162/14/6 166/7/6
f 169/1/1 170/2/1 172/3/1 171/4/1
f 171/4/2 172/3/2 176/5/2 175/6/2
f 175/6/3 176/5/3 174/7/3 173/8/3
f 173/8/4 174/7/4 170/9/4 169/10/4
f 171/11/5 175/6/5 173/8/5 169/12/5
f 176/5/6 172/13/6 170/14/6 174/7/6
f 177/1/1 178/2/1 180/3/1 179/4/1
f 179/4/2 180/3/2 184/5/2 183/6/2
f 183/6/3 184/5/3 182/7/3 181/8/3
f 181/8/4 182/7/4 178/9/4 177/10/4
f 179/11/5 183/6/5 181/8/5 177/12/5
f 184/5/6 180/13/6 178/14/6 182/7/6
