# Blender 4.0.2
# www.blender.org
mtllib bottom_windows.mtl
o Cube.017
v -212.674179 -5.558162 3.319514
v -212.674179 -2.891733 3.319514
v -211.508728 -5.558162 3.319514
v -211.508728 -2.891733 3.319514
v -211.400726 -5.558162 3.319514
v -211.400726 -2.891733 3.319514
v -210.235275 -5.558162 3.319514
v -210.235275 -2.891733 3.319514
v -234.430069 -5.558162 3.319515
v -234.430069 -2.891733 3.319515
v -233.264633 -5.558162 3.319515
v -233.264633 -2.891733 3.319515
v -233.156616 -5.558162 3.319515
v -233.156616 -2.891733 3.319515
v -231.991180 -5.558162 3.319515
v -231.991180 -2.891733 3.319515
v -228.735565 -5.558162 3.319515
v -228.735565 -2.891733 3.319515
v -227.570129 -5.558162 3.319515
v -227.570129 -2.891733 3.319515
v -227.462112 -5.558162 3.319515
v -227.462112 -2.891733 3.319515
v -226.296677 -5.558162 3.319515
v -226.296677 -2.891733 3.319515
v -228.735565 -6.253866 3.319515
v -227.570129 -6.253866 3.319515
v -227.462112 -6.253866 3.319515
v -226.296677 -6.253866 3.319515
v -226.158356 -5.558162 3.319515
v -226.158356 -2.891733 3.319515
v -224.992920 -5.558162 3.319515
v -224.992920 -2.891733 3.319515
v -224.884903 -5.558162 3.319515
v -224.884903 -2.891733 3.319515
v -223.719467 -5.558162 3.319515
v -223.719467 -2.891733 3.319515
v -226.158356 -6.253866 3.319515
v -224.992920 -6.253866 3.319515
v -224.884903 -6.253866 3.319515
v -223.719467 -6.253866 3.319515
v -223.600998 -5.558162 3.319515
v -223.600998 -2.891733 3.319515
v -222.435562 -5.558162 3.319515
v -222.435562 -2.891733 3.319515
v -222.327545 -5.558162 3.319515
v -222.327545 -2.891733 3.319515
v -221.162109 -5.558162 3.319515
v -221.162109 -2.891733 3.319515
v -223.600998 -6.253866 3.319515
v -222.435562 -6.253866 3.319515
v -222.327545 -6.253866 3.319515
v -221.162109 -6.253866 3.319515
v -221.063461 -5.558162 3.319515
v -221.063461 -2.891733 3.319515
v -219.898026 -5.558162 3.319515
v -219.898026 -2.891733 3.319515
v -219.790009 -5.558162 3.319515
v -219.790009 -2.891733 3.319515
v -218.624573 -5.558162 3.319515
v -218.624573 -2.891733 3.319515
v -221.063461 -6.253866 3.319515
v -219.898026 -6.253866 3.319515
v -219.790009 -6.253866 3.319515
v -218.624573 -6.253866 3.319515
v -231.638123 -5.558162 3.319515
v -231.638123 -2.891733 3.319515
v -230.472687 -5.558162 3.319515
v -230.472687 -2.891733 3.319515
v -230.364670 -5.558162 3.319515
v -230.364670 -2.891733 3.319515
v -229.199234 -5.558162 3.319515
v -229.199234 -2.891733 3.319515
v -218.347977 -5.558162 3.319515
v -218.347977 -2.891733 3.319515
v -217.182541 -5.558162 3.319515
v -217.182541 -2.891733 3.319515
v -217.074524 -5.558162 3.319515
v -217.074524 -2.891733 3.319515
v -215.909088 -5.558162 3.319515
v -215.909088 -2.891733 3.319515
v -215.388657 -5.558162 3.319515
v -215.388657 -2.891733 3.319515
v -214.223221 -5.558162 3.319515
v -214.223221 -2.891733 3.319515
v -214.115204 -5.558162 3.319515
v -214.115204 -2.891733 3.319515
v -212.949768 -5.558162 3.319515
v -212.949768 -2.891733 3.319515
vn -0.0000 -0.0000 1.0000
vt 0.375000 0.750000
vt 0.625000 0.750000
vt 0.625000 1.000000
vt 0.375000 1.000000
s 0
usemtl Material.007
f 3/1/1 4/2/1 2/3/1 1/4/1
f 7/1/1 8/2/1 6/3/1 5/4/1
f 19/1/1 20/2/1 18/3/1 17/4/1
f 23/1/1 24/2/1 22/3/1 21/4/1
f 20/2/1 19/1/1 21/4/1 22/3/1
f 21/4/1 19/1/1 26/1/1 27/4/1
f 23/1/1 21/4/1 27/4/1 28/1/1
f 19/1/1 17/4/1 25/4/1 26/1/1
f 31/1/1 32/2/1 30/3/1 29/4/1
f 35/1/1 36/2/1 34/3/1 33/4/1
f 32/2/1 31/1/1 33/4/1 34/3/1
f 33/4/1 31/1/1 38/1/1 39/4/1
f 35/1/1 33/4/1 39/4/1 40/1/1
f 31/1/1 29/4/1 37/4/1 38/1/1
f 43/1/1 44/2/1 42/3/1 41/4/1
f 47/1/1 48/2/1 46/3/1 45/4/1
f 44/2/1 43/1/1 45/4/1 46/3/1
f 45/4/1 43/1/1 50/1/1 51/4/1
f 47/1/1 45/4/1 51/4/1 52/1/1
f 43/1/1 41/4/1 49/4/1 50/1/1
f 55/1/1 56/2/1 54/3/1 53/4/1
f 59/1/1 60/2/1 58/3/1 57/4/1
f 56/2/1 55/1/1 57/4/1 58/3/1
f 57/4/1 55/1/1 62/1/1 63/4/1
f 59/1/1 57/4/1 63/4/1 64/1/1
f 55/1/1 53/4/1 61/4/1 62/1/1
f 67/1/1 68/2/1 66/3/1 65/4/1
f 71/1/1 72/2/1 70/3/1 69/4/1
f 75/1/1 76/2/1 74/3/1 73/4/1
f 79/1/1 80/2/1 78/3/1 77/4/1
f 83/1/1 84/2/1 82/3/1 81/4/1
f 87/1/1 88/2/1 86/3/1 85/4/1
usemtl Material.006
f 11/1/1 12/2/1 10/3/1 9/4/1
f 15/1/1 16/2/1 14/3/1 13/4/1
