# Blender 4.0.2
# www.blender.org
mtllib roof.mtl
o Cube.001
v -192.656708 -1.502780 2.889594
v -241.472809 -1.502780 2.889594
v -192.656708 -1.502780 16.489111
v -241.472809 -1.502780 16.489111
v -193.210999 2.956079 2.889594
v -242.027115 2.956079 2.889594
v -193.210999 2.584507 6.902565
v -242.027115 2.584507 6.902565
v -193.210999 1.432636 11.064167
v -242.027115 1.432636 11.064167
v -193.210999 0.132135 14.333996
v -242.027115 0.132135 14.333996
v -192.209381 2.367757 2.889594
v -242.027115 2.367757 2.889594
v -192.209381 1.996185 6.902565
v -242.027115 1.996185 6.902565
v -192.209381 0.844314 11.064167
v -242.027115 0.844314 11.064167
v -193.210999 -0.456186 14.333996
v -242.027115 -0.456186 14.333996
v -193.210999 -1.436722 16.449888
v -242.027115 -1.436722 16.449888
v -193.210999 -0.977418 16.656319
v -242.027115 -0.977418 16.656319
v -241.406006 2.956079 2.889594
v -192.286407 2.956079 2.889594
v -192.286407 2.584507 6.902565
v -192.286407 1.432636 11.064167
v -192.286407 0.132135 14.333996
v -192.286407 2.367757 2.889594
v -192.286407 1.996185 6.902565
v -192.286407 0.844314 11.064167
v -192.286407 -0.456186 14.333996
v -192.286407 -1.436722 16.449888
v -192.286407 -0.977418 16.656319
v -241.406006 2.584507 6.902565
v -241.406006 1.432636 11.064167
v -241.406006 0.132135 14.333996
v -241.406006 -0.977418 16.656319
v -241.445999 -1.436722 16.449888
v -241.415512 -1.436722 16.449888
v -192.677063 1.432636 11.064167
v -192.677063 2.584507 6.902565
v -192.677063 2.956079 2.889594
v -192.677063 -0.977418 16.656319
v -192.677063 0.132135 14.333996
vn -0.0000 1.0000 -0.0000
vn -0.0000 -0.9957 -0.0922
vn -0.0000 -0.9638 -0.2668
vn -0.0000 -0.9292 -0.3696
vn -0.0000 -0.9073 -0.4205
vn -0.0000 0.9292 0.3696
vn -0.0000 -0.9023 -0.4311
vn -0.0000 0.9073 0.4205
vn -1.0000 -0.0000 -0.0000
vn -0.0000 -0.0000 1.0000
vn -0.0000 0.4099 -0.9121
vn 1.0000 -0.0000 -0.0000
vn 0.9998 -0.0219 -0.0031
vn -0.0534 -0.4084 0.9112
vn -0.0000 0.9957 0.0922
vn -0.0000 0.9638 0.2668
vn -0.0000 0.9023 0.4311
vn 1.0000 0.0067 0.0010
vn -0.0006 0.3548 -0.9349
vt 0.448439 1.000000
vt 0.448439 0.750000
vt 0.000000 0.000000
s 0
usemtl Material.004
f 2/1/1 4/1/1 3/2/1 1/2/1
f 25/3/2 36/3/2 8/3/2 6/3/2
f 36/3/3 37/3/3 10/3/3 8/3/3
f 37/3/4 38/3/4 12/3/4 10/3/4
f 13/3/2 15/3/2 16/3/2 14/3/2
f 15/3/3 17/3/3 18/3/3 16/3/3
f 17/3/4 19/3/4 20/3/4 18/3/4
f 19/3/5 11/3/5 23/3/5 21/3/5 22/3/5 24/3/5 12/3/5 20/3/5
f 19/3/6 33/3/6 32/3/6 17/3/6
f 11/3/7 29/3/7 35/3/7 23/3/7
f 21/3/8 34/3/8 33/3/8 19/3/8
f 33/3/9 34/3/9 35/3/9 29/3/9 28/3/9 32/3/9
f 28/3/9 27/3/9 31/3/9 32/3/9
f 27/3/9 26/3/9 30/3/9 31/3/9
f 9/3/4 28/3/4 29/3/4 11/3/4
f 17/3/3 32/3/3 31/3/3 15/3/3
f 7/3/3 27/3/3 28/3/3 9/3/3
f 19/3/10 33/3/10 29/3/10 11/3/10
f 13/3/10 30/3/10 26/3/10 5/3/10
f 15/3/2 31/3/2 30/3/2 13/3/2
f 5/3/2 26/3/2 27/3/2 7/3/2
f 23/3/11 35/3/11 34/3/11 21/3/11
f 6/3/12 8/3/12 10/3/12 12/3/12 20/3/12 18/3/12 16/3/12 14/3/12
f 45/3/7 39/3/7 38/3/7 46/3/7
f 39/3/7 24/3/7 12/3/7 38/3/7
f 42/3/4 46/3/4 38/3/4 37/3/4
f 43/3/3 42/3/3 37/3/3 36/3/3
f 44/3/2 43/3/2 36/3/2 25/3/2
f 4/3/13 2/3/13 25/3/13 36/3/13 37/3/13 38/3/13 39/3/13
f 24/3/14 22/3/14 41/3/14 4/3/14 39/3/14
f 5/3/15 7/3/15 43/3/15 44/3/15
f 7/3/16 9/3/16 42/3/16 43/3/16
f 9/3/6 11/3/6 46/3/6 42/3/6
f 23/3/17 45/3/17 46/3/17 11/3/17
f 44/3/18 43/3/18 42/3/18 46/3/18 45/3/18 3/3/18 1/3/18
f 12/3/12 24/3/12 22/3/12 20/3/12
f 39/3/19 23/3/19 21/3/19 4/3/19
