# Blender 4.0.2
# www.blender.org
mtllib top_windows.mtl
o Cube.025
v -216.052338 6.670123 3.634045
v -216.052338 11.595731 3.634045
v -213.899460 6.670123 3.634045
v -213.899460 11.595731 3.634045
v -213.699936 6.670123 3.634045
v -213.699936 11.595731 3.634045
v -211.547058 6.670123 3.634045
v -211.547058 11.595731 3.634045
v -221.116821 6.670123 3.634045
v -221.116821 11.595731 3.634045
v -218.963943 6.670123 3.634045
v -218.963943 11.595731 3.634045
v -218.764420 6.670123 3.634045
v -218.764420 11.595731 3.634045
v -216.611542 6.670123 3.634045
v -216.611542 11.595731 3.634045
vn -0.0000 -0.0000 1.0000
vt 0.375000 0.750000
vt 0.625000 0.750000
vt 0.625000 1.000000
vt 0.375000 1.000000
s 0
usemtl Material.007
f 3/1/1 4/2/1 2/3/1 1/4/1
f 7/1/1 8/2/1 6/3/1 5/4/1
f 11/1/1 12/2/1 10/3/1 9/4/1
f 15/1/1 16/2/1 14/3/1 13/4/1
