# Blender 4.0.2
# www.blender.org
mtllib window_backs.mtl
o Cube
v -234.430069 -5.558162 3.319514
v -234.430069 -2.891733 3.319514
v -234.430069 -5.558162 2.663072
v -234.430069 -2.891733 2.663072
v -233.264618 -5.558162 3.319514
v -233.264618 -2.891733 3.319514
v -233.264618 -5.558162 2.663072
v -233.264618 -2.891733 2.663072
v -233.156616 -5.558162 3.319514
v -233.156616 -2.891733 3.319514
v -233.156616 -5.558162 2.663072
v -233.156616 -2.891733 2.663072
v -231.991165 -5.558162 3.319514
v -231.991165 -2.891733 3.319514
v -231.991165 -5.558162 2.663072
v -231.991165 -2.891733 2.663072
v -234.581543 -5.753307 3.060663
v -234.581543 -2.736347 3.060663
v -234.581543 -5.753307 2.577748
v -234.581543 -2.736347 2.577748
v -231.802521 -5.753307 3.060663
v -231.802521 -2.736347 3.060663
v -231.802521 -5.753307 2.233572
v -231.802521 -2.736347 2.233572
v -231.638123 -5.558162 3.319514
v -231.638123 -2.891733 3.319514
v -231.638123 -5.558162 2.663072
v -231.638123 -2.891733 2.663072
v -230.472672 -5.558162 3.319514
v -230.472672 -2.891733 3.319514
v -230.472672 -5.558162 2.663072
v -230.472672 -2.891733 2.663072
v -230.364670 -5.558162 3.319514
v -230.364670 -2.891733 3.319514
v -230.364670 -5.558162 2.663072
v -230.364670 -2.891733 2.663072
v -229.199219 -5.558162 3.319514
v -229.199219 -2.891733 3.319514
v -229.199219 -5.558162 2.663072
v -229.199219 -2.891733 2.663072
v -231.789597 -5.753307 3.060663
v -231.789597 -2.736347 3.060663
v -231.789597 -5.753307 2.577748
v -231.789597 -2.736347 2.577748
v -229.010574 -5.753307 3.060663
v -229.010574 -2.736347 3.060663
v -229.010574 -5.753307 2.233572
v -229.010574 -2.736347 2.233572
v -231.789597 -5.753307 3.060663
v -231.789597 -2.736348 3.060663
v -229.010574 -5.753307 3.060663
v -229.010574 -2.736348 3.060663
v -228.912277 -6.404322 3.060663
v -228.912277 -2.736348 3.060663
v -218.463882 -6.404322 3.060663
v -218.463882 -2.736348 3.060663
v -218.499466 -5.753307 3.060663
v -218.499466 -2.736348 3.060663
v -215.720428 -5.753307 3.060663
v -215.720428 -2.736348 3.060663
v -215.540131 -5.753307 3.060663
v -215.540131 -2.736348 3.060663
v -212.761108 -5.753307 3.060663
v -212.761108 -2.736348 3.060663
v -212.825653 -5.753307 3.060663
v -212.825653 -2.736348 3.060663
v -210.046631 -5.753307 3.060663
v -210.046631 -2.736348 3.060663
vn -1.0000 -0.0000 -0.0000
vn -0.0000 -0.0000 -1.0000
vn 1.0000 -0.0000 -0.0000
vn -0.0000 -1.0000 -0.0000
vn -0.0000 1.0000 -0.0000
vn -0.1229 -0.0000 -0.9924
vn -0.0000 -0.0000 1.0000
vt 0.375000 0.000000
vt 0.625000 0.000000
vt 0.625000 0.250000
vt 0.375000 0.250000
vt 0.625000 0.500000
vt 0.375000 0.500000
vt 0.625000 0.750000
vt 0.375000 0.750000
vt 0.125000 0.500000
vt 0.125000 0.750000
vt 0.875000 0.500000
vt 0.875000 0.750000
vt 0.610772 0.000000
vt 0.610772 0.250000
vt 0.610772 0.500000
vt 0.610772 0.750000
vt 0.610772 1.000000
vt 0.375000 1.000000
s 0
f 1/1/1 2/2/1 4/3/1 3/4/1
f 3/4/2 4/3/2 8/5/2 7/6/2
f 7/6/3 8/5/3 6/7/3 5/8/3
f 3/9/4 7/6/4 5/8/4 1/10/4
f 8/5/5 4/11/5 2/12/5 6/7/5
f 9/1/1 10/2/1 12/3/1 11/4/1
f 11/4/2 12/3/2 16/5/2 15/6/2
f 15/6/3 16/5/3 14/7/3 13/8/3
f 11/9/4 15/6/4 13/8/4 9/10/4
f 16/5/5 12/11/5 10/12/5 14/7/5
f 17/1/1 18/13/1 20/14/1 19/4/1
f 19/4/6 20/14/6 24/15/6 23/6/6
f 23/6/3 24/15/3 22/16/3 21/8/3
f 21/8/7 22/16/7 18/17/7 17/18/7
f 19/9/4 23/6/4 21/8/4 17/10/4
f 24/15/5 20/11/5 18/12/5 22/16/5
f 25/1/1 26/2/1 28/3/1 27/4/1
f 27/4/2 28/3/2 32/5/2 31/6/2
f 31/6/3 32/5/3 30/7/3 29/8/3
f 27/9/4 31/6/4 29/8/4 25/10/4
f 32/5/5 28/11/5 26/12/5 30/7/5
f 33/1/1 34/2/1 36/3/1 35/4/1
f 35/4/2 36/3/2 40/5/2 39/6/2
f 39/6/3 40/5/3 38/7/3 37/8/3
f 35/9/4 39/6/4 37/8/4 33/10/4
f 40/5/5 36/11/5 34/12/5 38/7/5
f 41/1/1 42/13/1 44/14/1 43/4/1
f 43/4/6 44/14/6 48/15/6 47/6/6
f 47/6/3 48/15/3 46/16/3 45/8/3
f 43/9/4 47/6/4 45/8/4 41/10/4
f 48/15/5 44/11/5 42/12/5 46/16/5
f 51/8/7 52/16/7 50/17/7 49/18/7
f 55/8/7 56/16/7 54/17/7 53/18/7
f 59/8/7 60/16/7 58/17/7 57/18/7
f 63/8/7 64/16/7 62/17/7 61/18/7
f 67/8/7 68/16/7 66/17/7 65/18/7
