# Blender 4.0.2
# www.blender.org
mtllib top_section.mtl
o black_wall.001
v 23.265137 9.677229 -17.724928
v 23.369093 19.443520 -17.724928
v 23.265137 9.677229 17.724928
v 23.369093 18.635582 17.724928
v -19.565239 9.677229 -17.724928
v -19.461281 19.443520 -17.724928
v -19.565239 9.677229 17.724928
v -19.461281 18.635582 17.724928
v -19.461281 18.635582 17.724928
v 23.265137 9.677229 17.724928
v -19.565239 9.677229 17.724928
v 23.369093 18.635582 17.724928
v -19.565239 9.677229 2.312940
v 23.369093 19.443520 2.312940
v -19.461281 19.443520 2.312940
v 23.265137 9.677229 2.312940
v 23.265137 18.627815 -17.724928
v -19.565239 18.627815 17.724928
v 23.265137 18.627815 17.724928
v -19.565239 18.627815 -17.724928
v 23.265137 18.627815 17.724928
v -19.565239 18.627815 17.724928
v 23.265137 18.627815 2.312940
v -19.565239 18.627815 2.312940
v -19.565239 9.668491 17.650080
v 23.265137 13.236292 -17.724928
v 23.265137 9.668491 17.650080
v -19.565239 13.236292 -17.724928
v 23.265137 9.668491 17.650080
v -19.565239 9.668491 17.650080
v 23.265137 11.676548 2.312940
v -19.565239 11.676548 2.312940
vn -0.0000 -1.0000 -0.0000
vn -0.0000 0.9933 -0.1159
vn -1.0000 -0.0000 -0.0000
vn -0.0000 -0.0000 -1.0000
vn 1.0000 -0.0000 -0.0000
vn -0.0000 0.9986 0.0524
vn -0.0000 1.0000 -0.0000
vn -0.9696 0.2448 0.0064
vn 0.9920 -0.1264 -0.0000
vn 0.9696 -0.2448 -0.0064
vn -0.9920 0.1264 -0.0000
vn -0.0000 -0.0000 1.0000
vt 0.625000 0.750000
vt 0.875000 0.750000
vt 0.521277 0.750000
vt 0.625000 1.000000
vt 0.521277 1.000000
vt 0.521277 0.118768
vt 0.625000 0.118768
vt 0.625000 0.250000
vt 0.521277 0.250000
vt 0.125000 0.750000
vt 0.375000 0.750000
vt 0.625000 0.500000
vt 0.521277 0.500000
vt 0.521277 0.631232
vt 0.625000 0.631232
vt 0.125000 0.631232
vt 0.375000 0.631232
vt 0.521277 1.000000
vt 0.875000 0.631232
vt 0.875000 0.500000
vt 0.125000 0.500000
vt 0.375000 0.500000
vt 0.521277 0.000000
vt 0.625000 0.000000
vt 0.375000 0.000000
vt 0.435284 0.000000
vt 0.435284 0.118768
vt 0.375000 0.118768
vt 0.435284 0.500000
vt 0.435284 0.631232
vt 0.375000 1.000000
vt 0.435284 1.000000
vt 0.435284 1.000000
vt 0.435284 0.750000
vt 0.375000 0.250000
vt 0.435284 0.250000
s 0
usemtl Material.005
f 10/1/1 3/1/1 7/2/1 11/2/1
f 27/3/2 25/5/2 7/4/2 3/1/2
f 32/6/3 28/9/3 5/8/3 13/7/3
f 9/10/1 8/10/1 4/11/1 12/11/1
f 29/3/1 27/3/1 3/1/1 10/1/1
f 28/9/4 26/13/4 1/12/4 5/8/4
f 31/14/5 29/3/5 10/1/5 16/15/5
f 15/16/6 9/10/6 12/11/6 14/17/6
f 25/5/1 30/18/1 11/4/1 7/4/1
f 16/15/1 10/1/1 11/2/1 13/19/1
f 1/12/1 16/15/1 13/19/1 5/20/1
f 6/21/7 15/16/7 14/17/7 2/22/7
f 26/13/5 31/14/5 16/15/5 1/12/5
f 30/23/3 32/6/3 13/7/3 11/24/3
f 9/25/8 15/28/8 24/27/8 22/26/8
f 2/22/9 14/17/9 23/30/9 17/29/9
f 8/31/1 9/31/1 22/33/1 18/32/1
f 14/17/10 12/11/10 21/34/10 23/30/10
f 6/35/4 2/22/4 17/29/4 20/36/4
f 12/11/1 4/11/1 19/34/1 21/34/1
f 15/28/11 6/35/11 20/36/11 24/27/11
f 4/11/12 8/31/12 18/32/12 19/34/12
f 17/29/5 23/30/5 31/14/5 26/13/5
f 20/36/4 17/29/4 26/13/4 28/9/4
f 24/27/3 20/36/3 28/9/3 32/6/3
f 23/30/12 24/27/12 32/6/12 31/14/12
